# AST/ASF file generated using VICON BodyLanguage
# -----------------------------------------------
:version 1.10
:name VICON
:units
  mass 1.0
  length 0.45
  angle deg
:documentation
   .ast/.asf automatically generated from VICON data using
   VICON BodyBuilder and BodyLanguage model FoxedUp or BRILLIANT.MOD
:root
   order TX TY TZ RX RY RZ
   axis XYZ
   position 0 0 0  
   orientation 0 0 0 
:bonedata
  begin
     id 1 
     name lhipjoint
     direction 0.714689 -0.624256 0.315473 
     length 2.45343 
     axis 0 0 0  XYZ
  end
  begin
     id 2 
     name lfemur
     direction 0.34202 -0.939693 0  
     length 6.59069  
     axis 0 0 20  XYZ
    dof rx ry rz
    limits (-160.0 20.0)
           (-70.0 70.0)
           (-60.0 70.0)
  end
  begin
     id 3 
     name ltibia
     direction 0.34202 -0.939693 0   
     length 6.73476   
     axis 0 0 20   XYZ
    dof rx
    limits (-10.0 170.0)
  end
  begin
     id 4 
     name lfoot
     direction 0.0718085 -0.197292 0.977711   
     length 1.52607   
     axis -90 7.62852e-016 20   XYZ
    dof rx rz
    limits (-45.0 90.0)
           (-70.0 20.0)
  end
  begin
     id 5 
     name ltoes
     direction 1.53553e-011 -4.22024e-011 1   
     length 0.777832   
     axis -90 7.62852e-016 20   XYZ
    dof rx
    limits (-90.0 20.0)
  end
  begin
     id 6 
     name rhipjoint
     direction -0.727419 -0.612432 0.309497   
     length 2.50079  
     axis 0 0 0  XYZ 
  end
  begin
     id 7 
     name rfemur
     direction -0.34202 -0.939693 0   
     length 6.51665   
     axis 0 0 -20   XYZ
    dof rx ry rz
    limits (-160.0 20.0)
           (-70.0 70.0)
           (-70.0 60.0)
  end
  begin
     id 8 
     name rtibia
     direction -0.34202 -0.939693 0   
     length 6.48919   
     axis 0 0 -20   XYZ
    dof rx
    limits (-10.0 170.0)
 end
 begin
     id 9 
     name rfoot
     direction -0.112205 -0.308282 0.944655   
     length 1.68717  
     axis -90 -7.62852e-016 -20   XYZ
    dof rx rz
    limits (-45.0 90.0)
           (-20.0 70.0)
  end
  begin
     id 10 
     name rtoes
     direction -1.53583e-011 -4.21993e-011 1   
     length 0.846859   
     axis -90 -7.62852e-016 -20   XYZ
    dof rx
    limits (-90.0 20.0)
  end
  begin
     id 11 
     name lowerback
     direction -0.00119603 0.996364 -0.0851956   
     length 1.67242   
     axis 0 0 0   XYZ
    dof rx ry rz
    limits (-20.0 45.0)
           (-30.0 30.0)
           (-30.0 30.0)
  end
  begin
     id 12 
     name upperback
     direction -0.00531001 0.998318 0.0577248   
     length 1.64819   
     axis 0 0 0   XYZ
    dof rx ry rz
    limits (-20.0 45.0)
           (-30.0 30.0)
           (-30.0 30.0)
  end
  begin
     id 13 
     name thorax
     direction -0.00653676 0.995132 0.0983291   
     length 1.67429   
     axis 0 0 0   XYZ
    dof rx ry rz
    limits (-20.0 45.0)
           (-30.0 30.0)
           (-30.0 30.0)
  end
  begin
     id 14 
     name lowerneck
     direction 0.0141424 0.999886 0.00525412   
     length 1.59623   
     axis 0 0 0   XYZ
    dof rx ry rz
    limits (-20.0 45.0)
           (-30.0 30.0)
           (-30.0 30.0)
  end
  begin
     id 15 
     name upperneck
     direction -0.0640064 0.987178 -0.146232   
     length 1.59576   
     axis 0 0 0   XYZ
    dof rx ry rz
    limits (-20.0 45.0)
           (-30.0 30.0)
           (-30.0 30.0)
  end
  begin
     id 16
     name head
     direction -0.0222942 0.998496 -0.0500859  
     length 1.60959  
     axis 0 0 0   XYZ
    dof rx ry rz
    limits (-20.0 45.0)
           (-30.0 30.0)
           (-30.0 30.0)
  end
  begin
     id 17 
     name lclavicle
     direction 0.908549 0.392612 0.142806  
     length 2.80649  
     axis 0 0 0   XYZ
    dof ry rz
    limits (-20.0 10.0)
           (0.0 20.0)
  end
  begin
     id 18 
     name lhumerus
     direction 1 -4.48968e-011 1.08832e-028   
     length 4.2884   
     axis -180 -30 -90   XYZ
    dof rx ry rz
    limits (-60.0 90.0)
           (-90.0 90.0)
           (-90.0 90.0)
  end
  begin
     id 19
     name lradius
     direction 1 -4.48952e-011 -3.02642e-028   
     length 3.06552   
     axis -180 -30 -90   XYZ
    dof rx
    limits (-10.0 170.0)
  end
  begin
     id 20
     name lwrist
     direction 1 -4.49014e-011 1.58672e-027   
     length 1.53276   
     axis -1.65735e-015 90 90   XYZ
    dof ry
    limits (-180.0 0.0)
 end
  begin
     id 21 
     name lhand
     direction 1 -4.48928e-011 3.17344e-027   
     length 0.753045   
     axis -2.02492e-015 90 90   XYZ
    dof rx rz
    limits (-90.0 90.0)
           (-45.0 45.0)
  end
  begin
     id 22 
     name lfingers
     direction 1 -4.48958e-011 6.34687e-027   
     length 0.607124   
     axis -4.04985e-015 90 90   XYZ
    dof rx
    limits (0.0 90.0)
  end
  begin
     id 23
     name lthumb
     direction 0.707107 -6.34905e-011 0.707107   
     length 0.871712   
     axis -90 45 2.85299e-015   XYZ
    dof rx rz
    limits (-45.0 45.0)
           (-45.0 45.0)
  end
  begin
     id 24 
     name rclavicle
     direction -0.885098 0.45949 0.0739604   
     length 2.9478  
     axis 0 0 0   XYZ 
    dof ry rz
    limits (-10.0 20.0)
           (-20.0 0.0)
  end
  begin
     id 25 
     name rhumerus
     direction -1 -4.4898e-011 -2.61739e-027  
     length 4.52172   
     axis -180 30 90   XYZ
    dof rx ry rz
    limits (-90.0 60.0)
           (-90.0 90.0)
           (-90.0 90.0)
  end
  begin
     id 26 
     name rradius
     direction -1 -4.48945e-011 9.02552e-028   
     length 2.8914   
     axis -180 30 90   XYZ
    dof rx
    limits (-10.0 170.0)
  end
  begin
     id 27 
     name rwrist
     direction -1 -4.49018e-011 1.58672e-027   
     length 1.4457   
     axis -1.65735e-015 -90 -90   XYZ
    dof ry
    limits (-180.0 0.0)
  end
  begin
     id 28
     name rhand
     direction -1 -4.48825e-011 3.17344e-027   
     length 0.680541   
     axis -2.02492e-015 -90 -90   XYZ
    dof rx rz
    limits (-90.0 90.0)
           (-45.0 45.0)
  end
  begin
     id 29
     name rfingers
     direction -1 -4.49067e-011 6.34687e-027   
     length 0.54867   
     axis -4.04985e-015 -90 -90   XYZ
    dof rx
    limits (0.0 90.0)
  end
  begin
     id 30
     name rthumb
     direction -0.707107 -6.34833e-011 0.707107   
     length 0.787783   
     axis -90 -45 -2.85299e-015   XYZ
    dof rx rz
    limits (-45.0 45.0)
           (-45.0 45.0)
  end
:hierarchy
  begin
    root lhipjoint rhipjoint lowerback
    lhipjoint lfemur
    lfemur ltibia
    ltibia lfoot
    lfoot ltoes
    rhipjoint rfemur
    rfemur rtibia
    rtibia rfoot
    rfoot rtoes
    lowerback upperback
    upperback thorax
    thorax lowerneck lclavicle rclavicle
    lowerneck upperneck
    upperneck head
    lclavicle lhumerus
    lhumerus lradius
    lradius lwrist
    lwrist lhand lthumb
    lhand lfingers
    rclavicle rhumerus
    rhumerus rradius
    rradius rwrist
    rwrist rhand rthumb
    rhand rfingers
  end

#!OML:ASF E:\emotionWalksFemale\Project 1\Capture day 1\Session 1\Female1.ASF
:FULLY-SPECIFIED
:DEGREES
179
root 9.99458 14.6541 -0.502905 4.82937 2.46263 -1.1537
lowerback 15.1065 0.859746 0.349597
upperback -2.34117 1.22299 0.0714151
thorax -11.0691 0.559709 -0.418257
lowerneck -6.88829 -3.47073 -5.72598
upperneck 4.82373 -4.44114 5.31451
head 3.08043 -2.13457 2.55855
rclavicle -2.7395e-015 -2.38542e-014
rhumerus -38.8296 13.6184 -93.1513
rradius 39.0323
rwrist 26.7813
rhand -7.85609 -56.6044
rfingers 7.12502
rthumb 18.0473 -85.7871
lclavicle -2.7395e-015 -2.38542e-014
lhumerus -34.6003 -1.40206 86.6342
lradius 34.6564
lwrist -13.8218
lhand -8.79678 -40.2208
lfingers 7.12502
lthumb 17.142 -10.957
rfemur -27.1693 4.66115 28.2402
rtibia 52.9878
rfoot -25.3758 -22.0852
rtoes 6.52219
lfemur -30.9895 -4.93804 -22.3718
ltibia 55.3599
lfoot -28.9274 5.90514
ltoes -27.6958
180
root 10.0004 14.7305 -0.481786 4.79768 2.44021 -1.11261
lowerback 15.0189 0.846817 0.474752
upperback -2.26288 1.22788 0.065569
thorax -10.9274 0.554932 -0.494252
lowerneck -7.05083 -3.47649 -5.6028
upperneck 4.83426 -4.4386 5.10554
head 3.10266 -2.13584 2.46281
rclavicle -3.13707e-015 -6.21202e-015
rhumerus -38.3822 13.3368 -92.9279
rradius 39.2808
rwrist 25.7531
rhand -7.83297 -56.0631
rfingers 7.12502
rthumb 18.0696 -85.2437
lclavicle -3.13707e-015 -6.21202e-015
lhumerus -34.5428 -1.83825 86.816
lradius 34.9501
lwrist -13.4485
lhand -8.43473 -40.0305
lfingers 7.12502
lthumb 17.4905 -10.7974
rfemur -26.3215 4.83276 28.1308
rtibia 51.5909
rfoot -24.7284 -22.1044
rtoes 6.40189
lfemur -30.1587 -5.05287 -22.3911
ltibia 54.0021
lfoot -28.305 5.80042
ltoes -27.1363
181
root 10.0055 14.8045 -0.458695 4.65355 2.3396 -1.04642
lowerback 15.069 0.840109 0.555924
upperback -2.25232 1.22985 0.0219512
thorax -10.9421 0.548968 -0.588983
lowerneck -7.20395 -3.47563 -5.68491
upperneck 5.18346 -4.43723 5.16937
head 3.25762 -2.1329 2.50039
rclavicle -6.39838e-016 8.34896e-015
rhumerus -38.1697 13.2069 -92.9231
rradius 39.4237
rwrist 24.6907
rhand -8.05746 -55.4784
rfingers 7.12502
rthumb 17.8536 -84.6789
lclavicle -6.39838e-016 8.34896e-015
lhumerus -34.4526 -2.20838 86.8817
lradius 34.8501
lwrist -13.1895
lhand -8.0759 -40.0084
lfingers 7.12502
lthumb 17.8358 -10.8063
rfemur -25.288 4.99688 28.0059
rtibia 50.1164
rfoot -24.0507 -22.0186
rtoes 6.11484
lfemur -29.1735 -5.08183 -22.4706
ltibia 52.5891
lfoot -27.6446 5.9394
ltoes -27.7767
182
root 10.0079 14.8802 -0.430867 4.48918 2.16048 -0.926985
lowerback 15.2185 0.880855 0.501672
upperback -2.36024 1.27078 -0.0225637
thorax -11.1502 0.568241 -0.620851
lowerneck -7.13471 -3.43707 -5.79467
upperneck 5.48033 -4.39577 5.27995
head 3.35259 -2.11195 2.56345
rclavicle 1.08772e-014 6.80837e-015
rhumerus -38.2596 12.9911 -92.9658
rradius 39.5355
rwrist 24.1362
rhand -8.17774 -55.2901
rfingers 7.12502
rthumb 17.7378 -84.5011
lclavicle 1.08772e-014 6.80837e-015
lhumerus -34.5806 -2.73987 87.0002
lradius 34.5779
lwrist -12.9472
lhand -7.97488 -40.005
lfingers 7.12502
lthumb 17.933 -10.8117
rfemur -24.1981 5.23296 27.8473
rtibia 48.6044
rfoot -23.4454 -21.9399
rtoes 6.32433
lfemur -28.1266 -5.10978 -22.5963
ltibia 51.1582
lfoot -26.94 6.12978
ltoes -28.7133
183
root 10.0113 14.9492 -0.404911 4.39055 1.87316 -0.899436
lowerback 15.247 0.960587 0.489424
upperback -2.43152 1.37824 0.00121273
thorax -11.2466 0.619959 -0.61584
lowerneck -7.02054 -3.42442 -5.80215
upperneck 5.56513 -4.37789 5.16327
head 3.35464 -2.10919 2.52697
rclavicle -9.88333e-015 -4.17448e-015
rhumerus -38.2444 12.9442 -92.9383
rradius 39.6672
rwrist 23.8403
rhand -7.90172 -55.362
rfingers 7.12502
rthumb 18.0034 -84.5488
lclavicle -9.88333e-015 -4.17448e-015
lhumerus -34.8485 -3.25436 87.2331
lradius 34.5349
lwrist -12.9103
lhand -8.11849 -39.984
lfingers 7.12502
lthumb 17.7948 -10.7782
rfemur -23.2297 5.55714 27.7909
rtibia 47.0933
rfoot -22.9039 -21.9637
rtoes 6.93848
lfemur -27.1434 -5.13716 -22.5943
ltibia 49.748
lfoot -26.2998 6.04725
ltoes -28.236
184
root 10.0143 15.0141 -0.38356 4.3566 1.58067 -0.892808
lowerback 15.2086 0.9885 0.488156
upperback -2.48102 1.42164 0.0570667
thorax -11.2808 0.642526 -0.564683
lowerneck -6.98198 -3.41443 -5.8968
upperneck 5.70696 -4.34845 4.99267
head 3.39155 -2.10391 2.4886
rclavicle 1.21756e-015 1.07344e-014
rhumerus -38.1365 13.3526 -93.0599
rradius 39.6663
rwrist 23.5605
rhand -7.79449 -55.2056
rfingers 7.12502
rthumb 18.1066 -84.3828
lclavicle 1.21756e-015 1.07344e-014
lhumerus -35.0384 -3.48489 87.4165
lradius 34.5165
lwrist -13.1914
lhand -8.4544 -39.8793
lfingers 7.12502
lthumb 17.4716 -10.6444
rfemur -22.3722 5.91228 27.7451
rtibia 45.5876
rfoot -22.3701 -21.9915
rtoes 7.80453
lfemur -26.2258 -5.13061 -22.5641
ltibia 48.3449
lfoot -25.6788 5.88793
ltoes -27.5291
185
root 10.0172 15.0799 -0.364796 4.34546 1.46258 -0.771561
lowerback 15.1962 0.954656 0.470514
upperback -2.58807 1.36964 0.0196033
thorax -11.394 0.61664 -0.583957
lowerneck -6.95221 -3.41568 -5.86432
upperneck 5.97099 -4.35005 4.82846
head 3.47042 -2.11116 2.42747
rclavicle -2.05742e-014 -1.48095e-014
rhumerus -38.1257 13.6847 -93.334
rradius 39.5063
rwrist 23.5031
rhand -7.90409 -54.8256
rfingers 7.12502
rthumb 18.0011 -84.0125
lclavicle -2.05742e-014 -1.48095e-014
lhumerus -35.1837 -3.84966 87.5467
lradius 34.3475
lwrist -13.3902
lhand -8.52013 -39.4969
lfingers 7.12502
lthumb 17.4083 -10.2565
rfemur -21.4831 6.11886 27.5826
rtibia 44.0538
rfoot -21.8602 -22.0607
rtoes 8.14713
lfemur -25.3482 -5.23588 -22.6689
ltibia 46.9179
lfoot -24.9968 5.90007
ltoes -27.6098
186
root 10.021 15.1458 -0.343213 4.36233 1.4175 -0.579959
lowerback 15.0643 0.931808 0.389625
upperback -2.70246 1.31863 -0.0257146
thorax -11.4466 0.59572 -0.573934
lowerneck -6.87761 -3.41984 -5.71942
upperneck 6.26424 -4.36209 4.57258
head 3.54419 -2.12508 2.31382
rclavicle -2.04391e-014 2.65874e-015
rhumerus -38.1605 13.9743 -93.5304
rradius 39.4057
rwrist 23.475
rhand -7.73514 -54.6193
rfingers 7.12502
rthumb 18.1637 -83.7912
lclavicle -2.04391e-014 2.65874e-015
lhumerus -35.3146 -4.1987 87.7362
lradius 34.1107
lwrist -13.536
lhand -8.23915 -39.2116
lfingers 7.12502
lthumb 17.6787 -9.99532
rfemur -20.5624 6.18914 27.3541
rtibia 42.4712
rfoot -21.2495 -22.1398
rtoes 7.36136
lfemur -24.475 -5.4058 -22.8486
ltibia 45.4394
lfoot -24.3104 5.90453
ltoes -27.2869
187
root 10.0259 15.214 -0.311932 4.28677 1.25105 -0.458172
lowerback 14.8822 0.955297 0.336422
upperback -2.73407 1.3402 -0.0179788
thorax -11.376 0.610466 -0.537401
lowerneck -7.06584 -3.41716 -5.74
upperneck 6.74263 -4.3429 4.37756
head 3.74125 -2.12333 2.25225
rclavicle 1.08536e-014 1.65364e-014
rhumerus -38.1765 14.583 -93.7484
rradius 39.364
rwrist 23.1059
rhand -7.58844 -54.8203
rfingers 7.12502
rthumb 18.3048 -83.979
lclavicle 1.08536e-014 1.65364e-014
lhumerus -35.436 -4.44647 87.9556
lradius 33.9283
lwrist -13.7418
lhand -7.93552 -38.8952
lfingers 7.12502
lthumb 17.9709 -9.70542
rfemur -19.5073 6.32904 27.1978
rtibia 40.8356
rfoot -20.5487 -22.1742
rtoes 6.46559
lfemur -23.3999 -5.55414 -22.9567
ltibia 43.9213
lfoot -23.6927 5.89393
ltoes -26.0701
188
root 10.0333 15.2765 -0.277976 4.19008 0.933749 -0.419383
lowerback 14.6359 1.02056 0.392604
upperback -2.68643 1.43588 -0.0265435
thorax -11.1749 0.65344 -0.595855
lowerneck -7.42106 -3.41848 -5.96608
upperneck 7.18233 -4.32158 4.48206
head 3.97806 -2.11249 2.33099
rclavicle -1.10729e-015 -7.96381e-015
rhumerus -38.0827 15.2347 -94.0263
rradius 39.2867
rwrist 22.7102
rhand -7.75235 -54.9592
rfingers 7.12502
rthumb 18.1471 -84.1327
lclavicle -1.10729e-015 -7.96381e-015
lhumerus -35.4901 -4.75113 88.1289
lradius 33.8295
lwrist -13.8557
lhand -7.46277 -38.5069
lfingers 7.12502
lthumb 18.4257 -9.3596
rfemur -18.4332 6.61653 27.1041
rtibia 39.1645
rfoot -19.9818 -22.1159
rtoes 6.26675
lfemur -22.264 -5.71248 -22.9948
ltibia 42.4155
lfoot -23.1785 6.10043
ltoes -25.5211
189
root 10.0387 15.331 -0.248462 4.28572 0.576261 -0.342115
lowerback 14.1197 1.11296 0.429886
upperback -2.82544 1.55612 -0.110838
thorax -11.0221 0.70635 -0.727375
lowerneck -6.90849 -3.40398 -6.03522
upperneck 7.26568 -4.33622 4.59984
head 3.91383 -2.12304 2.38819
rclavicle 1.48739e-014 -1.4679e-014
rhumerus -38.335 15.413 -94.3293
rradius 39.3109
rwrist 22.8432
rhand -7.97931 -54.5993
rfingers 7.12502
rthumb 17.9287 -83.7929
lclavicle 1.48739e-014 -1.4679e-014
lhumerus -35.7951 -4.99708 88.1691
lradius 33.6201
lwrist -14.1484
lhand -6.89199 -38.5695
lfingers 7.12502
lthumb 18.9747 -9.47501
rfemur -17.5728 6.95281 26.9505
rtibia 37.4627
rfoot -19.5925 -22.0013
rtoes 6.48827
lfemur -21.4678 -5.79962 -23.0771
ltibia 40.9672
lfoot -22.6815 6.65126
ltoes -27.5459
190
root 10.0407 15.3855 -0.219119 4.44413 0.228974 -0.252205
lowerback 13.6232 1.19232 0.411721
upperback -2.94332 1.65045 -0.181426
thorax -10.8586 0.751478 -0.804994
lowerneck -6.58833 -3.40692 -5.79802
upperneck 7.3033 -4.36454 4.39015
head 3.84898 -2.14269 2.27251
rclavicle 1.12154e-014 3.1526e-015
rhumerus -38.4194 15.7784 -94.6154
rradius 39.2803
rwrist 22.9121
rhand -8.01396 -54.207
rfingers 7.12502
rthumb 17.8954 -83.4037
lclavicle 1.12154e-014 3.1526e-015
lhumerus -35.8978 -5.14351 88.1453
lradius 33.3084
lwrist -14.5211
lhand -6.17729 -38.916
lfingers 7.12502
lthumb 19.6619 -9.89031
rfemur -16.7042 7.27352 26.802
rtibia 35.6909
rfoot -19.2747 -21.9578
rtoes 7.07683
lfemur -20.8254 -5.8752 -23.1572
ltibia 39.5711
lfoot -22.1521 7.15914
ltoes -29.1822
191
root 10.0423 15.4387 -0.188518 4.58108 -0.0838044 -0.186456
lowerback 13.1602 1.26642 0.365218
upperback -3.01061 1.74269 -0.159514
thorax -10.6617 0.801524 -0.764537
lowerneck -6.642 -3.37779 -5.77077
upperneck 7.52844 -4.31497 4.21165
head 3.92882 -2.12519 2.2094
rclavicle -3.70392e-015 -3.67752e-015
rhumerus -38.44 16.5658 -94.8612
rradius 39.1984
rwrist 22.6348
rhand -7.67446 -54.1451
rfingers 7.12502
rthumb 18.222 -83.3116
lclavicle -3.70392e-015 -3.67752e-015
lhumerus -35.9303 -5.28502 88.2788
lradius 33.0631
lwrist -14.7281
lhand -5.63581 -39.0875
lfingers 7.12502
lthumb 20.1824 -10.116
rfemur -15.7256 7.59515 26.6857
rtibia 33.8119
rfoot -18.8741 -21.9479
rtoes 7.32575
lfemur -20.118 -6.07268 -23.1934
ltibia 38.2042
lfoot -21.6718 7.54644
ltoes -28.9946
192
root 10.0433 15.4972 -0.157096 4.76507 -0.297552 -0.108385
lowerback 12.616 1.33442 0.329344
upperback -3.08485 1.82633 -0.161433
thorax -10.4238 0.846396 -0.750793
lowerneck -6.94193 -3.38398 -5.74849
upperneck 7.97869 -4.30455 4.04335
head 4.14148 -2.12552 2.14717
rclavicle -1.53748e-016 -1.04859e-014
rhumerus -38.5746 17.171 -95.0861
rradius 39.2262
rwrist 22.6111
rhand -7.44461 -54.1311
rfingers 7.12502
rthumb 18.4432 -83.2768
lclavicle -1.53748e-016 -1.04859e-014
lhumerus -36.0974 -5.48843 88.4575
lradius 32.9531
lwrist -14.9046
lhand -5.74082 -38.8517
lfingers 7.12502
lthumb 20.0815 -9.86946
rfemur -14.7521 7.83414 26.5374
rtibia 31.8229
rfoot -18.2964 -21.8876
rtoes 6.59079
lfemur -19.4984 -6.3752 -23.2318
ltibia 36.8643
lfoot -21.2158 8.04416
ltoes -29.4254
